<svg xmlns="http://www.w3.org/2000/svg" xml:space="preserve" id="Camada_1" x="0" y="0"
  style="enable-background:new 0 0 215.2 48.3" version="1.1" viewBox="0 0 215.2 48.3">
  <style>
    .st0 {
      fill: #502382
    }

    .st1 {
      fill: #b1b3b3
    }
  </style>
  <path
    d="M154.4 5.4h-8.7V1.1h22.2v4.3h-8.7v21.3h-4.8V5.4zM13.9 0C6.2 0 0 6.2 0 13.9s6.2 13.9 13.9 13.9 13.9-6.2 13.9-13.9C27.9 6.2 21.6 0 13.9 0zm0 20.1c-3.4 0-6.2-2.8-6.2-6.2s2.8-6.2 6.2-6.2 6.2 2.8 6.2 6.2-2.7 6.2-6.2 6.2zM61.6.5h-5.7v4.9h5.7c4.7 0 8.6 3.8 8.6 8.6 0 4.7-3.8 8.6-8.6 8.6h-5.7v4.9h5.7c7.4 0 13.4-6 13.4-13.4C75 6.5 69 .5 61.6.5zM124.8 26.8 114 1.2h-4.7L98.5 26.8h5L111.6 7l8.2 19.8zM215.1 26.8 204.3 1.2h-4.7l-10.8 25.6h5L201.9 7l8.2 19.8zM51 11.5h4.9v4.9H51z"
    class="st0" />
  <path
    d="M47.8 37.2h1l2.3 7.9h-1.3l-.5-2h-3.8l-1.1 2h-1.3l4.7-7.9zm1.2 5-1-3.6-2 3.6h3zM52.3 39.8h1l-.1.8c.2-.3.4-.5.8-.7.3-.2.7-.3 1.1-.3.3 0 .5 0 .7.1s.4.2.6.4c.2.2.3.4.3.6.1.3.1.6 0 .9l-.5 3.4h-1l.4-3.1v-.6c0-.2-.1-.3-.2-.4s-.2-.2-.4-.2c-.1 0-.3-.1-.4-.1-.2 0-.4 0-.6.1s-.4.2-.5.3c-.2.1-.3.3-.4.6s-.2.5-.2.8l-.4 2.7h-1l.8-5.3zM64.3 37.2h1l2.3 7.9h-1.3l-.5-2H62l-1.1 2h-1.3l4.7-7.9zm1.2 5-1-3.6-2 3.6h3zM69.3 36.7h1l-1.2 8.4h-1l1.2-8.4zM71.3 39.8h1l-.7 5.3h-1l.7-5.3zm.1-1.9c0-.2.1-.4.3-.5.2-.1.3-.2.5-.2s.4.1.5.2.2.3.1.5-.1.4-.3.5c-.2.1-.3.2-.5.2s-.4-.1-.5-.2c-.1-.1-.2-.3-.1-.5zM78.3 45.1c-.1.4-.2.8-.4 1.1-.2.3-.4.6-.7.9-.3.2-.6.4-1 .6-.4.1-.8.2-1.2.2-.5 0-1-.1-1.4-.2s-.8-.4-1.1-.7l.8-.8c.2.3.5.5.8.6s.6.2 1 .2.7-.1.9-.2c.3-.1.5-.2.6-.4.2-.2.3-.4.4-.6s.2-.4.2-.7l.1-.8c-.2.3-.5.6-.9.7-.4.2-.7.2-1.1.2s-.7-.1-1.1-.2c-.3-.1-.6-.3-.8-.6-.2-.2-.4-.5-.4-.9-.1-.3-.1-.7 0-1.1s.2-.8.3-1.1c.2-.3.4-.6.7-.9.3-.3.6-.5.9-.6s.7-.2 1.1-.2.7.1 1 .2c.3.2.6.4.7.7l.1-.8h1l-.5 5.4zm-2.1-4.5c-.3 0-.5 0-.7.1s-.4.2-.6.4c-.2.2-.3.4-.4.6s-.2.5-.2.7c-.1.5 0 1 .3 1.3s.7.5 1.2.5 1-.2 1.3-.5c.4-.3.6-.8.7-1.3v-.7c0-.2-.1-.4-.3-.6s-.3-.3-.5-.4c-.3 0-.6-.1-.8-.1zM80.3 39.8h1l-.1.8c.2-.3.4-.5.8-.7.3-.2.7-.3 1.1-.3.3 0 .5 0 .7.1s.4.2.6.4c.2.2.3.4.3.6.1.3.1.6 0 .9l-.5 3.4h-1l.4-3.1v-.6c0-.2-.1-.3-.2-.4s-.2-.2-.4-.2c-.1 0-.3-.1-.4-.1-.2 0-.4 0-.6.1s-.4.2-.5.3c-.2.1-.3.3-.4.6s-.2.5-.2.8l-.4 2.7h-1l.8-5.3zM86.6 42.9c0 .2 0 .4.1.6s.2.4.3.5.3.2.5.3c.2.1.4.1.7.1.3 0 .6-.1.8-.2.3-.1.5-.3.7-.6l.7.6c-.7.7-1.5 1.1-2.5 1.1-.4 0-.8-.1-1.1-.2-.3-.1-.6-.3-.8-.6-.2-.2-.3-.5-.4-.9s-.1-.7 0-1.1.2-.8.4-1.1c.2-.3.4-.6.7-.9l.9-.6c.3-.2.7-.2 1.1-.2.5 0 .9.1 1.2.2s.5.4.7.6.3.6.3.9v1l-.1.4-4.2.1zM90 42v-.6c0-.2-.1-.3-.2-.5-.1-.1-.2-.2-.4-.3-.2-.1-.4-.1-.7-.1-.2 0-.5 0-.7.1s-.4.2-.6.4c-.2.1-.3.3-.4.5s-.2.4-.2.5H90zM96.9 45.1h-1l.1-.8c-.2.3-.5.5-.9.7s-.7.2-1.1.2c-.4 0-.8-.1-1.1-.2s-.6-.3-.8-.6c-.2-.3-.3-.5-.4-.9-.1-.3-.1-.7 0-1.1s.2-.8.3-1.1c.2-.3.4-.6.7-.9l.9-.6c.4-.1.7-.2 1.1-.2.4 0 .7.1 1 .2s.5.4.7.7l.5-3.9h1l-1 8.5zm-2.7-.8c.3 0 .5 0 .7-.1s.4-.2.6-.4.3-.4.4-.6c.1-.2.2-.5.2-.7v-.7c0-.2-.1-.4-.3-.6s-.3-.3-.5-.4-.4-.1-.7-.1-.5 0-.7.1-.4.2-.6.4c-.2.2-.3.4-.4.6s-.2.5-.2.7v.7c0 .2.1.4.3.6.1.2.3.3.5.4s.5.1.7.1zM102.2 37.2h2.7c.6 0 1 .1 1.4.2s.7.3 1 .5.5.5.7.7c.2.3.3.6.4.8.1.3.1.6.1.9v.8c-.1.5-.2 1-.5 1.5s-.6.9-1 1.3-.9.7-1.5.9-1.2.3-1.9.3H101l1.2-7.9zm.1 6.9h1.4c.5 0 .9-.1 1.3-.2s.8-.3 1.1-.6l.9-.9c.2-.4.4-.8.4-1.3v-.6c0-.2 0-.4-.1-.6s-.1-.4-.3-.6c-.1-.2-.3-.4-.5-.6s-.5-.3-.8-.4-.7-.2-1.1-.2H103l-.7 6zM109.8 40.5c.3-.3.7-.5 1.1-.6.4-.1.8-.2 1.1-.2.4 0 .7 0 1 .1s.5.2.6.4c.2.2.3.4.3.6.1.2.1.4 0 .7l-.4 2.7c0 .2-.1.4-.1.5v.4h-.9v-.4c0-.1 0-.3.1-.4-.3.3-.6.6-.9.7-.3.1-.7.2-1.1.2-.2 0-.5 0-.7-.1s-.4-.2-.5-.3c-.1-.1-.3-.3-.3-.5s-.1-.4-.1-.7c0-.3.2-.6.3-.9.2-.2.4-.4.7-.6.3-.1.6-.2 1-.3s.7-.1 1.1-.1h.7V41.1c0-.1-.1-.3-.2-.4-.1-.1-.2-.2-.4-.3-.1-.1-.3-.1-.5-.1s-.4 0-.5.1c-.2 0-.3.1-.4.1-.1.1-.2.1-.3.2s-.2.1-.3.2l-.4-.4zm2.5 2.1h-.7c-.2 0-.5.1-.7.2s-.4.2-.5.3c-.1.1-.2.3-.3.5 0 .3 0 .5.2.7.2.1.5.2.8.2s.5 0 .7-.1.4-.2.5-.4c.1-.1.3-.3.3-.5.1-.2.1-.4.2-.5l.1-.3-.6-.1zM118.2 40.7h-1.4l-.3 2.4c0 .1 0 .3-.1.4v.4c0 .1.1.2.2.3.1.1.2.1.4.1h.4c.2 0 .3-.1.4-.1l-.1.9c-.1 0-.1.1-.2.1h-.7c-.4 0-.7-.1-.9-.2s-.3-.2-.4-.4c-.1-.2-.1-.4-.1-.6s0-.4.1-.6l.4-2.8h-1.2l.1-.9h1.2l.2-1.5h1l-.2 1.5h1.4l-.2 1zM119.3 40.5c.3-.3.7-.5 1.1-.6.4-.1.8-.2 1.1-.2.4 0 .7 0 1 .1s.5.2.6.4c.2.2.3.4.3.6.1.2.1.4 0 .7l-.4 2.7c0 .2-.1.4-.1.5v.4h-.9v-.4c0-.1 0-.3.1-.4-.3.3-.6.6-.9.7-.3.1-.7.2-1.1.2-.2 0-.5 0-.7-.1s-.4-.2-.5-.3c-.1-.1-.3-.3-.3-.5s-.1-.4-.1-.7c0-.3.2-.6.3-.9.2-.2.4-.4.7-.6.3-.1.6-.2 1-.3s.7-.1 1.1-.1h.7V41.1c0-.1-.1-.3-.2-.4-.1-.1-.2-.2-.4-.3-.1-.1-.3-.1-.5-.1s-.4 0-.5.1c-.2 0-.3.1-.4.1-.1.1-.2.1-.3.2s-.2.1-.3.2l-.4-.4zm2.5 2.1h-.7c-.2 0-.5.1-.7.2s-.4.2-.5.3c-.1.1-.2.3-.3.5 0 .3 0 .5.2.7.2.1.5.2.8.2s.5 0 .7-.1.4-.2.5-.4c.1-.1.3-.3.3-.5.1-.2.1-.4.2-.5l.1-.3-.6-.1zM133.7 38.9c-.2-.3-.4-.5-.8-.7s-.7-.2-1-.2c-.4 0-.9.1-1.2.3-.4.2-.7.4-1 .7-.3.3-.5.6-.7 1s-.3.8-.4 1.3c-.1.4 0 .8 0 1.2.1.4.2.7.4 1s.5.5.8.7.7.2 1.2.2.9-.1 1.2-.3c.4-.2.7-.4 1-.8l.8.7-.4.4c-.2.2-.4.3-.7.5s-.6.3-.9.4c-.4.1-.8.2-1.2.2-.6 0-1.2-.1-1.6-.4-.5-.2-.9-.6-1.2-.9-.3-.4-.5-.8-.6-1.3s-.1-1-.1-1.5c.1-.6.3-1.2.5-1.7s.6-1 1-1.3c.4-.4.9-.7 1.4-.9.5-.2 1.1-.3 1.7-.3.5 0 1 .1 1.5.3s.8.5 1.1.9l-.8.5zM135.8 42.9c0 .2 0 .4.1.6s.2.4.3.5.3.2.5.3c.2.1.4.1.7.1s.6-.1.8-.2c.3-.1.5-.3.7-.6l.7.6c-.7.7-1.5 1.1-2.5 1.1-.4 0-.8-.1-1.1-.2s-.6-.3-.8-.6c-.2-.2-.3-.5-.4-.9s-.1-.7 0-1.1.2-.8.4-1.1c.2-.3.4-.6.7-.9l.9-.6c.3-.2.7-.2 1.1-.2.5 0 .9.1 1.2.2s.5.4.7.6.3.6.3.9v1l-.1.4-4.2.1zm3.3-.9v-.6c0-.2-.1-.3-.2-.5-.1-.1-.2-.2-.4-.3-.2-.1-.4-.1-.7-.1-.2 0-.5 0-.7.1s-.4.2-.6.4c-.2.1-.3.3-.4.5-.1.2-.2.4-.2.5h3.2zM141.4 39.8h1l-.1.8c.2-.3.4-.5.8-.7.3-.2.7-.3 1.1-.3.3 0 .5 0 .7.1s.4.2.6.4c.2.2.3.4.3.6.1.3.1.6 0 .9l-.5 3.4h-1l.4-3.1v-.6c0-.2-.1-.3-.2-.4-.1-.1-.2-.2-.4-.2-.1 0-.3-.1-.4-.1-.2 0-.4 0-.6.1-.2.1-.4.2-.5.3-.2.1-.3.3-.4.6s-.2.5-.2.8l-.4 2.7h-1l.8-5.3zM150.2 40.7h-1.4l-.3 2.4c0 .1 0 .3-.1.4v.4c0 .1.1.2.2.3.1.1.2.1.4.1h.4c.2 0 .3-.1.4-.1l-.1.9c-.1 0-.1.1-.2.1h-.7c-.4 0-.7-.1-.9-.2s-.3-.2-.4-.4c-.1-.2-.1-.4-.1-.6s0-.4.1-.6l.4-2.8h-1.2l.1-.9h1.2l.2-1.5h1l-.2 1.5h1.4l-.2 1zM151.7 42.9c0 .2 0 .4.1.6s.2.4.3.5.3.2.5.3c.2.1.4.1.7.1s.6-.1.8-.2c.3-.1.5-.3.7-.6l.7.6c-.7.7-1.5 1.1-2.5 1.1-.4 0-.8-.1-1.1-.2s-.6-.3-.8-.6c-.2-.2-.3-.5-.4-.9s-.1-.7 0-1.1.2-.8.4-1.1c.2-.3.4-.6.7-.9l.9-.6c.3-.2.7-.2 1.1-.2.5 0 .9.1 1.2.2s.5.4.7.6.3.6.3.9v1l-.1.4-4.2.1zm3.3-.9v-.6c0-.2-.1-.3-.2-.5-.1-.1-.2-.2-.4-.3-.2-.1-.4-.1-.7-.1-.2 0-.5 0-.7.1s-.4.2-.6.4c-.2.1-.3.3-.4.5-.1.2-.2.4-.2.5h3.2zM157.3 39.8h1l-.1.8c.2-.3.4-.5.7-.7s.6-.3 1-.3c.2 0 .3 0 .4.1l-.2 1.1c-.1 0-.2 0-.2-.1s-.2 0-.2 0c-.5 0-.9.1-1.2.4s-.5.7-.6 1.3l-.4 2.7h-1l.8-5.3zM163.9 41.2c-.1-.1-.2-.3-.4-.4s-.4-.2-.6-.2c-.2 0-.5 0-.6.2s-.3.2-.3.4 0 .3.1.4.2.2.3.2c.1.1.3.1.4.1.1 0 .3.1.4.1.2.1.4.1.6.2.2.1.3.2.5.3s.2.3.3.4c.1.2.1.4 0 .6 0 .3-.1.6-.3.8-.2.2-.3.4-.6.5-.2.1-.5.2-.7.3s-.5.1-.8.1c-.4 0-.8-.1-1.1-.2s-.6-.4-.8-.7l.8-.6c.1.2.3.3.5.4s.4.2.7.2.5-.1.8-.2c.2-.1.4-.3.4-.5 0-.1 0-.3-.1-.4s-.2-.2-.3-.2-.3-.1-.4-.1c-.1 0-.3-.1-.4-.1-.2-.1-.4-.1-.6-.2s-.3-.2-.5-.3c-.1-.1-.2-.3-.3-.4-.1-.2-.1-.4 0-.6 0-.3.1-.5.3-.7.1-.2.3-.4.5-.5s.4-.2.7-.3c.3-.1.5-.1.7-.1.4 0 .7.1 1 .2s.5.4.7.7l-.9.6zM174.8 38.9c-.2-.3-.4-.5-.8-.7s-.7-.2-1-.2c-.4 0-.9.1-1.2.3-.4.2-.7.4-1 .7-.3.3-.5.6-.7 1s-.3.8-.4 1.3c-.1.4 0 .8 0 1.2.1.4.2.7.4 1s.5.5.8.7.7.2 1.2.2.9-.1 1.2-.3c.4-.2.7-.4 1-.8l.8.7-.4.4c-.2.2-.4.3-.7.5s-.6.3-.9.4c-.4.1-.8.2-1.2.2-.6 0-1.2-.1-1.6-.4-.5-.2-.9-.6-1.2-.9-.3-.4-.5-.8-.6-1.3s-.1-1-.1-1.5c.1-.6.3-1.2.5-1.7s.6-1 1-1.3c.4-.4.9-.7 1.4-.9.5-.2 1.1-.3 1.7-.3.5 0 1 .1 1.5.3s.8.5 1.1.9l-.8.5zM175.9 42.5c.1-.4.2-.7.4-1.1.2-.3.4-.6.7-.9s.6-.5 1-.6.7-.2 1.1-.2.8.1 1.1.2.6.3.8.6c.2.3.4.5.5.9.1.3.1.7.1 1.1-.1.4-.2.8-.4 1.1-.2.3-.4.6-.7.9-.3.2-.6.4-1 .6s-.7.2-1.1.2-.8-.1-1.1-.2-.6-.3-.8-.6c-.2-.2-.4-.5-.5-.9-.2-.4-.2-.7-.1-1.1zm1.1 0v.7c0 .2.1.4.3.6.1.2.3.3.5.4s.4.1.7.1.5 0 .7-.1.4-.2.6-.4.3-.4.4-.6c.1-.2.2-.5.2-.7v-.7c0-.2-.1-.4-.3-.6s-.3-.3-.5-.4-.4-.1-.7-.1-.5 0-.7.1-.4.2-.6.4c-.2.2-.3.4-.4.6s-.2.4-.2.7zM182.9 39.8h.9l-.1.8c0-.1.1-.2.2-.3.1-.1.2-.2.4-.3.2-.1.3-.2.6-.3.2-.1.4-.1.7-.1.8 0 1.3.3 1.5 1 .2-.3.5-.6.8-.7s.7-.2 1-.2c.4 0 .7.1 1 .2.2.1.4.3.5.5s.2.5.2.7v.9l-.4 3.1h-1l.4-3v-.6c0-.2 0-.4-.1-.5s-.2-.3-.3-.3c-.1-.1-.3-.1-.6-.1-.5 0-.9.1-1.1.4-.2.3-.4.7-.5 1.2l-.4 2.9h-1l.4-2.8c0-.3.1-.5.1-.7s0-.4-.1-.5c-.1-.2-.2-.3-.3-.4s-.3-.1-.6-.1c-.2 0-.4 0-.5.1-.2.1-.3.2-.5.3-.1.1-.3.3-.4.5-.1.2-.2.5-.2.8l-.4 2.7h-1l.8-5.2zM192.2 39.8h1l-.1.8c.2-.3.5-.5.9-.7s.7-.2 1.1-.2c.4 0 .8.1 1.1.2s.6.3.8.6c.2.3.3.5.4.9s.1.7 0 1.1-.2.8-.4 1.1c-.2.3-.4.6-.7.9l-.9.6c-.3.2-.7.2-1.1.2-.4 0-.7-.1-1-.2s-.5-.4-.7-.7l-.5 3.9h-1l1.1-8.5zm2.7.8c-.3 0-.5 0-.7.1s-.4.2-.6.4c-.2.2-.3.4-.4.6s-.2.5-.2.7v.7c0 .2.1.4.3.6.1.2.3.3.5.4s.4.1.7.1.5 0 .7-.1.4-.2.6-.4.3-.4.4-.6c.1-.2.2-.5.2-.7v-.7c0-.2-.1-.4-.3-.6s-.3-.3-.5-.4c-.2 0-.5-.1-.7-.1zM198.8 40.5c.3-.3.7-.5 1.1-.6.4-.1.8-.2 1.1-.2.4 0 .7 0 1 .1s.5.2.6.4c.2.2.3.4.3.6.1.2.1.4 0 .7l-.4 2.7c0 .2-.1.4-.1.5v.4h-.9v-.4c0-.1 0-.3.1-.4-.3.3-.6.6-.9.7-.3.1-.7.2-1.1.2-.2 0-.5 0-.7-.1s-.4-.2-.5-.3c-.1-.1-.3-.3-.3-.5s-.1-.4-.1-.7c0-.3.2-.6.3-.9.2-.2.4-.4.7-.6.3-.1.6-.2 1-.3s.7-.1 1.1-.1h.7V41.1c0-.1-.1-.3-.2-.4-.1-.1-.2-.2-.4-.3-.1-.1-.3-.1-.5-.1s-.4 0-.5.1c-.2 0-.3.1-.4.1-.1.1-.2.1-.3.2s-.2.1-.3.2l-.4-.4zm2.5 2.1h-.7c-.2 0-.5.1-.7.2s-.4.2-.5.3c-.1.1-.2.3-.3.5 0 .3 0 .5.2.7.2.1.5.2.8.2s.5 0 .7-.1.4-.2.5-.4c.1-.1.3-.3.3-.5.1-.2.1-.4.2-.5l.1-.3-.6-.1zM204.4 39.8h1l-.1.8c.2-.3.4-.5.8-.7.3-.2.7-.3 1.1-.3.3 0 .5 0 .7.1s.4.2.6.4c.2.2.3.4.3.6.1.3.1.6 0 .9l-.5 3.4h-1l.4-3.1v-.6c0-.2-.1-.3-.2-.4-.1-.1-.2-.2-.4-.2-.1 0-.3-.1-.4-.1-.2 0-.4 0-.6.1-.2.1-.4.2-.5.3-.2.1-.3.3-.4.6s-.2.5-.2.8l-.4 2.7h-1l.8-5.3zM209.8 39.8h1.2l1 4.1 2.1-4.1h1.1l-3.4 6.4c-.1.2-.2.4-.4.6-.1.2-.3.4-.4.5-.2.1-.3.2-.5.3s-.4.1-.7.1h-.4c-.1 0-.3-.1-.4-.1l.2-.9c.2.1.4.1.6.1.2 0 .3 0 .4-.1s.2-.1.3-.2.2-.2.2-.3.1-.2.2-.4l.4-.8-1.5-5.2z"
    class="st1" />
</svg>