<svg xmlns="http://www.w3.org/2000/svg" viewBox="0 0 108 17" fill="currentColor" stroke="currentColor">
  <path
    d="M1.542-51.226h-55c-9.477 0-13.904 4.427-13.904 13.904v23.417C-67.362-4.428-62.935 0-53.458 0h55v-9.258h-52.805c-4.976 0-5.854-.878-5.854-5.854v-21.003c0-4.976.878-5.854 5.854-5.854H1.542v-9.257Z"
    transform="translate(104.776 13.638) scale(.21696)" />
  <path
    d="M0-51.226h-41.091c-9.476 0-13.904 4.427-13.904 13.904v23.417C-54.995-4.428-50.567 0-41.091 0h54.994v-9.258h-52.799c-4.976 0-5.854-.878-5.854-5.854v-5.854h58.653v-16.356c0-9.477-4.464-13.904-13.903-13.904ZM-44.75-30.26v-5.855c0-4.976.878-5.854 5.854-5.854h36.7c4.976 0 5.854.878 5.854 5.854v5.855H-44.75Z"
    transform="translate(84.553 13.636) scale(.21696)" />
  <path
    d="M4.57-51.226h-54.898c-9.478 0-13.905 4.427-13.905 13.904v2.268c0 9.477 4.427 13.905 13.905 13.905h38.872c4.976 0 5.818.841 5.818 5.854v.183c0 4.976-.842 5.854-5.818 5.854h-52.903V0H-9.26C.18 0 4.607-4.428 4.607-13.905v-2.634c0-9.477-4.427-13.904-13.867-13.904h-38.873c-4.976 0-5.854-.842-5.854-5.745 0-4.903.878-5.781 5.854-5.781H4.57v-9.257Z"
    transform="translate(69.075 13.638) scale(.21696)" />
  <path
    d="M0 51.226h54.997V0H44.752v20.966H0c-9.477 0-13.904 4.427-13.904 13.905v2.451c0 9.477 4.427 13.904 13.904 13.904Zm-3.659-15.112v-.036c0-4.977.878-5.818 5.854-5.818h42.557v11.709H2.195c-4.976 0-5.854-.878-5.854-5.855Z"
    transform="translate(40.58 2.512) scale(.21696)" />
  <path
    d="M0-51.226h-41.091c-9.476 0-13.904 4.427-13.904 13.904v23.417C-54.995-4.428-50.567 0-41.091 0h54.994v-9.258h-52.799c-4.976 0-5.854-.878-5.854-5.854v-5.854h58.653v-16.356c0-9.477-4.464-13.904-13.903-13.904ZM-44.75-30.26v-5.855c0-4.976.878-5.854 5.854-5.854h36.7c4.976 0 5.854.878 5.854 5.854v5.855H-44.75Z"
    transform="translate(31.956 13.628) scale(.21696)" />
  <path
    d="M0 51.226h54.997V0H44.752v20.966H0c-9.477 0-13.904 4.427-13.904 13.905v2.451c0 9.477 4.427 13.904 13.904 13.904Zm-3.659-15.112v-.036c0-4.977.878-5.818 5.854-5.818h42.557v11.709H2.195c-4.976 0-5.854-.878-5.854-5.855Z"
    transform="translate(5.53 2.512) scale(.21696)" />
</svg>