<svg xmlns="http://www.w3.org/2000/svg" viewBox="0 0 1070 585" fill="currentColor" stroke="currentColor"
    stroke-width="2">
    <path
        d="M0-51.226h-48.408c-9.478 0-13.905 4.427-13.905 13.904v2.268c0 9.477 4.427 13.905 13.905 13.905h35.272c4.976 0 5.818.841 5.818 5.854v.183c0 4.976-.842 5.854-5.818 5.854h-49.543V0h51.739C-1.5 0 2.927-4.428 2.927-13.905v-2.634c0-9.477-4.427-13.904-13.867-13.904h-35.273c-4.976 0-5.854-.842-5.854-5.745 0-4.903.878-5.781 5.854-5.781H0v-9.257Z"
        transform="translate(283.635 563.438) scale(4.16667)" />
    <path
        d="M0-51.226h-41.091c-9.476 0-13.904 4.427-13.904 13.904v23.417C-54.995-4.428-50.567 0-41.091 0h54.994v-9.258h-52.799c-4.976 0-5.854-.878-5.854-5.854v-5.854h58.653v-16.356c0-9.477-4.464-13.904-13.903-13.904ZM-44.75-30.26v-5.855c0-4.976.878-5.854 5.854-5.854h36.7c4.976 0 5.854.878 5.854 5.854v5.855H-44.75Z"
        transform="translate(615.477 563.438) scale(4.16667)" />
    <path
        d="M0-51.226h-53.458c-9.477 0-13.904 4.427-13.904 13.904v23.417C-67.362-4.428-62.935 0-53.458 0H0v-9.258h-51.263c-4.976 0-5.854-.878-5.854-5.854v-21.003c0-4.976.878-5.854 5.854-5.854H0v-9.257Z"
        transform="translate(1048.403 563.438) scale(4.16667)" />
    <path
        d="M0 51.226h55.653V0H45.408v20.966H0c-9.477 0-13.904 4.427-13.904 13.905v2.451c0 9.477 4.427 13.904 13.904 13.904Zm-3.659-15.112v-.036c0-4.977.878-5.818 5.854-5.818h43.213v11.709H2.195c-4.976 0-5.854-.878-5.854-5.855Z"
        transform="translate(78.869 20.937) scale(4.16667)" />
    <path
        d="M0-51.226h-41.091c-9.476 0-13.904 4.427-13.904 13.904v23.417C-54.995-4.428-50.567 0-41.091 0h54.994v-9.258h-52.799c-4.976 0-5.854-.878-5.854-5.854v-5.854h58.653v-16.356c0-9.477-4.464-13.904-13.903-13.904ZM-44.75-30.26v-5.855c0-4.976.878-5.854 5.854-5.854h36.7c4.976 0 5.854.878 5.854 5.854v5.855H-44.75Z"
        transform="translate(623.544 234.383) scale(4.16667)" />
    <path
        d="M0 51.226h55.653V0H45.408v20.966H0c-9.477 0-13.904 4.427-13.904 13.905v2.451c0 9.477 4.427 13.904 13.904 13.904Zm-3.659-15.112v-.036c0-4.977.878-5.818 5.854-5.818h43.213v11.709H2.195c-4.976 0-5.854-.878-5.854-5.855Z"
        transform="translate(814.67 20.937) scale(4.16667)" />
</svg>